<?xml version="1.0" standalone="no"?><!DOCTYPE svg PUBLIC "-//W3C//DTD SVG 1.1//EN" "http://www.w3.org/Graphics/SVG/1.1/DTD/svg11.dtd"><svg t="1605593778822" class="icon" viewBox="0 0 1024 1024" version="1.1" xmlns="http://www.w3.org/2000/svg" p-id="1255" xmlns:xlink="http://www.w3.org/1999/xlink" width="200" height="200"><defs><style type="text/css"></style></defs><path d="M608 569.6h-192C256 569.6 128 704 128 870.4v19.2C128 960 256 960 416 960h185.6c160 0 288 0 288-70.4v-19.2C896 704 768 569.6 608 569.6zM512 512c121.6 0 217.6-102.4 217.6-224S633.6 64 512 64 294.4 166.4 294.4 288 390.4 512 512 512z" fill="#FFCED0" p-id="1256"></path><path d="M608 1011.2h-192c-179.2 0-339.2 0-339.2-115.2v-19.2c0-179.2 128-326.4 294.4-352-70.4-51.2-128-134.4-128-236.8C243.2 140.8 364.8 19.2 512 19.2s268.8 121.6 268.8 268.8c0 102.4-51.2 185.6-134.4 236.8 166.4 19.2 294.4 172.8 294.4 352v19.2c0 115.2-160 115.2-332.8 115.2z m-192-396.8c-134.4 0-243.2 115.2-243.2 256v19.2c19.2 19.2 153.6 19.2 243.2 19.2h185.6c70.4 0 224 0 243.2-25.6v-19.2c0-140.8-108.8-256-243.2-256H416zM512 115.2C416 115.2 339.2 192 339.2 288S416 467.2 512 467.2s172.8-76.8 172.8-179.2S608 115.2 512 115.2z" fill="#F90000" p-id="1257"></path></svg>