<?xml version="1.0" standalone="no"?><!DOCTYPE svg PUBLIC "-//W3C//DTD SVG 1.1//EN" "http://www.w3.org/Graphics/SVG/1.1/DTD/svg11.dtd"><svg t="1605593808109" class="icon" viewBox="0 0 1024 1024" version="1.1" xmlns="http://www.w3.org/2000/svg" p-id="1258" xmlns:xlink="http://www.w3.org/1999/xlink" width="200" height="200"><defs><style type="text/css"></style></defs><path d="M192 64h640c70.4 0 128 57.6 128 128v640c0 70.4-57.6 128-128 128H192c-70.4 0-128-57.6-128-128V192c0-70.4 57.6-128 128-128z" fill="#FFCED0" p-id="1259"></path><path d="M832 1004.8H192c-96 0-179.2-76.8-179.2-179.2V192C12.8 96 89.6 12.8 192 12.8h640c96 0 179.2 76.8 179.2 179.2v640c-6.4 96-83.2 172.8-179.2 172.8zM192 108.8c-44.8 0-83.2 38.4-83.2 83.2v640c0 44.8 38.4 76.8 76.8 76.8h640c44.8 0 76.8-38.4 76.8-76.8V192c0-44.8-38.4-76.8-76.8-76.8H192z" fill="#F90000" p-id="1260"></path><path d="M774.4 780.8H230.4c-25.6 0-44.8-19.2-44.8-51.2s19.2-51.2 44.8-51.2h544c25.6 0 51.2 19.2 51.2 51.2s-25.6 51.2-51.2 51.2zM774.4 620.8H230.4c-25.6 0-51.2-19.2-51.2-44.8s19.2-51.2 44.8-51.2H768c25.6 0 51.2 19.2 51.2 51.2s-19.2 44.8-44.8 44.8zM256 454.4c-12.8 0-32-6.4-38.4-19.2-19.2-19.2-12.8-51.2 12.8-64l121.6-83.2C384 256 435.2 256 473.6 281.6l89.6 57.6c6.4 6.4 12.8 0 19.2 0l128-128c19.2-19.2 51.2-19.2 70.4 0 19.2 19.2 19.2 51.2 0 70.4l-128 128c-38.4 32-96 38.4-140.8 12.8l-89.6-57.6c-6.4-6.4-12.8-6.4-19.2 0L281.6 448c-6.4 6.4-19.2 6.4-25.6 6.4z" fill="#F90000" p-id="1261"></path></svg>