<?xml version="1.0" standalone="no"?><!DOCTYPE svg PUBLIC "-//W3C//DTD SVG 1.1//EN" "http://www.w3.org/Graphics/SVG/1.1/DTD/svg11.dtd"><svg t="1605593829745" class="icon" viewBox="0 0 1024 1024" version="1.1" xmlns="http://www.w3.org/2000/svg" p-id="1722" xmlns:xlink="http://www.w3.org/1999/xlink" width="200" height="200"><defs><style type="text/css"></style></defs><path d="M179.2 140.8h672c70.4 0 121.6 57.6 121.6 121.6v537.6c0 70.4-57.6 121.6-121.6 121.6H179.2c-70.4 0-121.6-57.6-121.6-121.6V262.4c0-70.4 51.2-121.6 121.6-121.6z" fill="#FFCED0" p-id="1723"></path><path d="M844.8 972.8H179.2C83.2 972.8 6.4 896 6.4 800V262.4c0-96 76.8-172.8 172.8-172.8h672c96 0 172.8 76.8 172.8 172.8v537.6c-6.4 96-83.2 172.8-179.2 172.8zM179.2 185.6c-38.4 0-76.8 32-76.8 76.8v537.6c0 38.4 32 76.8 76.8 76.8h672c38.4 0 76.8-32 76.8-76.8V262.4c0-38.4-32-76.8-76.8-76.8H179.2z" fill="#F90000" p-id="1724"></path><path d="M236.8 768c-12.8 0-19.2-6.4-32-12.8-19.2-19.2-25.6-44.8-6.4-70.4l134.4-166.4c25.6-32 70.4-51.2 108.8-38.4l217.6 51.2c6.4 0 12.8 0 12.8-6.4l121.6-224c12.8-25.6 38.4-32 64-19.2s32 44.8 19.2 64l-121.6 224c-25.6 44.8-70.4 64-121.6 57.6L422.4 576c-6.4 0-12.8 0-12.8 6.4l-134.4 166.4c-6.4 12.8-25.6 19.2-38.4 19.2z" fill="#F90000" p-id="1725"></path></svg>