<?xml version="1.0" standalone="no"?><!DOCTYPE svg PUBLIC "-//W3C//DTD SVG 1.1//EN" "http://www.w3.org/Graphics/SVG/1.1/DTD/svg11.dtd"><svg t="1605593835511" class="icon" viewBox="0 0 1024 1024" version="1.1" xmlns="http://www.w3.org/2000/svg" p-id="1875" xmlns:xlink="http://www.w3.org/1999/xlink" width="200" height="200"><defs><style type="text/css"></style></defs><path d="M160 578.752h64c38.4 0 64 25.6 64 64v128c0 38.4-25.6 64-64 64h-64c-38.4 0-64-25.6-64-64v-128c0-38.4 25.6-64 64-64z" fill="#FFCED0" p-id="1876"></path><path d="M224 879.552h-64c-64 0-115.2-51.2-115.2-115.2v-128c0-64 51.2-115.2 115.2-115.2h64c64 0 115.2 51.2 115.2 115.2v128c-6.4 64-57.6 115.2-115.2 115.2z m-64-256c-6.4 0-12.8 6.4-12.8 12.8v128c0 6.4 6.4 12.8 12.8 12.8h64c6.4 0 12.8-6.4 12.8-12.8v-128c0-6.4-6.4-12.8-12.8-12.8h-64z" fill="#F90000" p-id="1877"></path><path d="M480 66.752h64c38.4 0 64 25.6 64 64v640c0 38.4-25.6 64-64 64h-64c-38.4 0-64-25.6-64-64v-640c0-38.4 25.6-64 64-64z" fill="#FFCED0" p-id="1878"></path><path d="M544 879.552h-64c-64 0-115.2-51.2-115.2-115.2v-640c0-64 51.2-115.2 115.2-115.2h64c64 0 115.2 51.2 115.2 115.2v640c-6.4 64-57.6 115.2-115.2 115.2z m-64-768c-6.4 0-12.8 6.4-12.8 12.8v640c0 6.4 6.4 12.8 12.8 12.8h64c6.4 0 12.8-6.4 12.8-12.8v-640c0-6.4-6.4-12.8-12.8-12.8h-64z" fill="#F90000" p-id="1879"></path><path d="M800 322.752h64c38.4 0 64 25.6 64 64v384c0 38.4-25.6 64-64 64h-64c-38.4 0-64-25.6-64-64v-384c0-38.4 25.6-64 64-64z" fill="#FFCED0" p-id="1880"></path><path d="M864 879.552h-64c-64 0-115.2-51.2-115.2-115.2v-384c0-64 51.2-108.8 115.2-108.8h64c64 0 115.2 51.2 115.2 108.8v384c-6.4 64-57.6 115.2-115.2 115.2z m-64-512c-6.4 0-12.8 6.4-12.8 12.8v384c0 6.4 6.4 12.8 12.8 12.8h64c6.4 0 12.8-6.4 12.8-12.8v-384c0-6.4-6.4-12.8-12.8-12.8h-64z" fill="#F90000" p-id="1881"></path><path d="M960 1007.552H64c-25.6 0-51.2-19.2-51.2-51.2s19.2-51.2 51.2-51.2h896c25.6 0 51.2 19.2 51.2 51.2s-19.2 51.2-51.2 51.2z" fill="#F90000" p-id="1882"></path></svg>