<?xml version="1.0" standalone="no"?><!DOCTYPE svg PUBLIC "-//W3C//DTD SVG 1.1//EN" "http://www.w3.org/Graphics/SVG/1.1/DTD/svg11.dtd"><svg t="1605593515079" class="icon" viewBox="0 0 1024 1024" version="1.1" xmlns="http://www.w3.org/2000/svg" p-id="3613" xmlns:xlink="http://www.w3.org/1999/xlink" width="200" height="200"><defs><style type="text/css"></style></defs><path d="M184.603 162.651H671.56c134.466 0 243.478 109.01 243.478 243.479v365.215c0 38.421-31.148 69.567-69.565 69.567H358.515c-134.469 0-243.478-109.01-243.478-243.479V232.218c0.001-38.421 31.148-69.567 69.566-69.567z" fill="#FFA820" p-id="3614"></path><path d="M857.455 248.909c23.198 35.198 41.501 73.907 53.951 115.155-7.564-43.423-26.635-82.888-53.951-115.155zM192.176 162.651h-7.574c-38.417 0-69.565 31.146-69.565 69.567v21.013a444.846 444.846 0 0 1 77.139-90.58zM915.038 771.345V607.521c-25.25 93.763-80.533 175.208-154.897 233.391h85.332c38.417 0 69.565-31.146 69.565-69.567z" fill="#FEAC33" p-id="3615"></path><path d="M115.871 617.56c10.235 125.052 114.953 223.352 242.644 223.352h13.561C255.861 810.578 161.213 726.879 115.871 617.56zM915.038 607.521V406.13c0-14.347-1.251-28.4-3.632-42.066-12.45-41.248-30.753-79.957-53.951-115.155-39.857-47.079-97.264-78.816-162.128-85.101 94.266 69.549 155.415 181.398 155.415 307.533 0 177.515-121.106 326.74-285.202 369.571h194.602c74.363-58.182 129.646-139.628 154.896-233.391zM243.855 162.651h-51.679a444.846 444.846 0 0 0-77.139 90.58v73.902c26.976-66.109 71.943-122.964 128.818-164.482z" fill="#FEB133" p-id="3616"></path><path d="M850.742 471.341c0-126.135-61.149-237.983-155.415-307.533a246.279 246.279 0 0 0-23.767-1.157h-78.84c105.806 52.568 178.533 161.725 178.533 287.885 0 177.443-143.846 321.289-321.289 321.289S128.675 627.979 128.675 450.536c0-126.16 72.727-235.317 178.533-287.885h-63.353c-56.875 41.518-101.842 98.373-128.818 164.481v270.3c0 6.779 0.29 13.489 0.834 20.128 45.341 109.319 139.99 193.018 256.205 223.352h193.463c164.096-42.832 285.203-192.056 285.203-369.571z" fill="#FEB633" p-id="3617"></path><path d="M128.675 450.536c0 177.443 143.846 321.289 321.289 321.289s321.289-143.846 321.289-321.289c0-126.16-72.727-235.317-178.533-287.885H307.208c-105.806 52.568-178.533 161.725-178.533 287.885zM431.12 169.087c143.95 0 260.644 116.694 260.644 260.644S575.07 690.376 431.12 690.376 170.476 573.681 170.476 429.731 287.17 169.087 431.12 169.087z" fill="#FFBC34" p-id="3618"></path><path d="M431.12 690.376c143.95 0 260.644-116.694 260.644-260.644S575.07 169.087 431.12 169.087 170.476 285.781 170.476 429.731 287.17 690.376 431.12 690.376z m-18.843-481.449c110.457 0 200 89.543 200 200s-89.543 200-200 200-200-89.543-200-200 89.543-200 200-200z" fill="#FFC134" p-id="3619"></path><path d="M412.277 608.926c110.457 0 200-89.543 200-200s-89.543-200-200-200-200 89.543-200 200 89.543 200 200 200z m-18.844-360.159c76.964 0 139.355 62.391 139.355 139.355s-62.391 139.355-139.355 139.355-139.355-62.391-139.355-139.355 62.391-139.355 139.355-139.355z" fill="#FFC634" p-id="3620"></path><path d="M393.433 388.122m-139.355 0a139.355 139.355 0 1 0 278.71 0 139.355 139.355 0 1 0-278.71 0Z" fill="#FFCB34" p-id="3621"></path><path d="M671.56 180.651c30.446 0 59.973 5.959 87.759 17.712 26.847 11.356 50.963 27.616 71.676 48.33 20.714 20.714 36.974 44.829 48.33 71.677 11.753 27.787 17.712 57.314 17.712 87.761v365.215c0 28.434-23.132 51.567-51.565 51.567H358.515c-30.447 0-59.974-5.959-87.761-17.712-26.848-11.356-50.963-27.616-71.676-48.33s-36.974-44.829-48.329-71.677c-11.753-27.787-17.712-57.314-17.712-87.761V232.218c0-28.434 23.132-51.567 51.565-51.567H671.56m0-18H184.603c-38.417 0-69.565 31.146-69.565 69.567v365.215c0 134.469 109.008 243.479 243.478 243.479h486.957c38.417 0 69.565-31.146 69.565-69.567V406.13c0-134.469-109.012-243.479-243.478-243.479z" fill="#FFA820" p-id="3622"></path><path d="M603.397 279.917H255.57c-19.207 0-34.783 15.572-34.783 34.783v69.565c0 19.209 15.576 34.784 34.783 34.784h347.827c19.207 0 34.783-15.576 34.783-34.784V314.7c-0.001-19.21-15.576-34.783-34.783-34.783zM464.268 488.613H255.57c-19.207 0-34.783 15.572-34.783 34.784 0 19.209 15.576 34.781 34.783 34.781h208.699c19.207 0 34.781-15.572 34.781-34.781-0.001-19.212-15.575-34.784-34.782-34.784z m0 121.74H255.57c-19.207 0-34.783 15.572-34.783 34.781s15.576 34.784 34.783 34.784h208.699c19.207 0 34.781-15.576 34.781-34.784-0.001-19.209-15.575-34.781-34.782-34.781z" fill="#FFE3B4" p-id="3623"></path><path d="M175.19 281.252c-9.941 0-18-8.059-18-18v-12.156c0-26.31 21.404-47.714 47.714-47.714H298c9.941 0 18 8.059 18 18s-8.059 18-18 18h-93.096c-6.459 0-11.714 5.255-11.714 11.714v12.156c0 9.941-8.059 18-18 18zM175.19 350.858c-9.941 0-18-8.059-18-18v-10.546c0-9.941 8.059-18 18-18s18 8.059 18 18v10.546c0 9.941-8.059 18-18 18z" fill="#FFFFFF" p-id="3624"></path></svg>