<?xml version="1.0" standalone="no"?><!DOCTYPE svg PUBLIC "-//W3C//DTD SVG 1.1//EN" "http://www.w3.org/Graphics/SVG/1.1/DTD/svg11.dtd"><svg t="1605593813336" class="icon" viewBox="0 0 1024 1024" version="1.1" xmlns="http://www.w3.org/2000/svg" p-id="1411" xmlns:xlink="http://www.w3.org/1999/xlink" width="200" height="200"><defs><style type="text/css"></style></defs><path d="M595.2 422.4c153.6 12.8 256 0 300.8-44.8 70.4-70.4 70.4-185.6 0-256s-185.6-70.4-256 0c-44.8 51.2-57.6 147.2-44.8 300.8z" fill="#FFCED0" p-id="1412"></path><path d="M704 480c-32 0-70.4 0-115.2-6.4l-38.4-6.4-6.4-38.4c-19.2-172.8 0-281.6 57.6-332.8 89.6-89.6 236.8-89.6 326.4 0 44.8 44.8 64 102.4 64 160 0 57.6-25.6 115.2-64 160-44.8 44.8-115.2 64-224 64z m-64-102.4c160 12.8 211.2-19.2 224-32 19.2-19.2 32-57.6 32-89.6 0-32-12.8-70.4-38.4-89.6-51.2-51.2-134.4-51.2-185.6 0-12.8 6.4-44.8 51.2-32 211.2z" fill="#F90000" p-id="1413"></path><path d="M595.2 601.6c153.6-12.8 256 0 300.8 44.8 70.4 70.4 70.4 185.6 0 256s-185.6 70.4-256 0c-44.8-51.2-57.6-147.2-44.8-300.8z" fill="#FFCED0" p-id="1414"></path><path d="M768 998.4c-57.6 0-115.2-19.2-160-64-57.6-57.6-76.8-166.4-57.6-332.8l6.4-38.4 38.4-6.4c172.8-19.2 281.6 0 339.2 57.6 44.8 44.8 64 102.4 64 160 0 57.6-25.6 115.2-64 160-51.2 38.4-108.8 64-166.4 64z m-128-352c-12.8 160 19.2 204.8 32 217.6 51.2 51.2 134.4 51.2 185.6 0 25.6-25.6 38.4-57.6 38.4-89.6 0-32-12.8-70.4-38.4-89.6-6.4-19.2-57.6-51.2-217.6-38.4z" fill="#F90000" p-id="1415"></path><path d="M428.8 422.4c-153.6 19.2-256 0-300.8-38.4C57.6 313.6 57.6 198.4 128 128S313.6 57.6 384 128c44.8 44.8 57.6 140.8 44.8 294.4z" fill="#FFCED0" p-id="1416"></path><path d="M320 480c-108.8 0-179.2-19.2-224-64C51.2 371.2 32 313.6 32 256c0-57.6 25.6-115.2 64-160C185.6 6.4 332.8 6.4 422.4 96c57.6 57.6 76.8 166.4 57.6 332.8l-6.4 38.4-38.4 6.4c-44.8 6.4-83.2 6.4-115.2 6.4zM256 121.6c-32 0-64 12.8-89.6 38.4-25.6 25.6-38.4 57.6-38.4 96 0 32 12.8 70.4 38.4 89.6 6.4 12.8 57.6 44.8 217.6 32 12.8-160-19.2-204.8-32-217.6-25.6-25.6-57.6-38.4-96-38.4z" fill="#F90000" p-id="1417"></path><path d="M428.8 601.6c-153.6-12.8-256 0-300.8 44.8-70.4 70.4-70.4 185.6 0 256s185.6 70.4 256 0c44.8-51.2 57.6-147.2 44.8-300.8z" fill="#FFCED0" p-id="1418"></path><path d="M256 998.4c-57.6 0-115.2-19.2-160-64s-64-102.4-64-160c0-57.6 25.6-115.2 64-160 57.6-57.6 166.4-76.8 339.2-57.6l38.4 6.4 6.4 38.4c19.2 172.8 0 281.6-57.6 332.8-44.8 38.4-108.8 64-166.4 64zM320 640c-115.2 0-147.2 25.6-160 32-19.2 25.6-32 64-32 96s12.8 70.4 38.4 89.6c51.2 51.2 134.4 51.2 185.6 0 12.8-12.8 44.8-57.6 32-217.6H320z" fill="#F90000" p-id="1419"></path></svg>